<?xml version="1.0"?>
<svg xmlns="http://www.w3.org/2000/svg" version="1.2" baseProfile="tiny" width="800" height="121" viewBox="0 0 800 121" stroke-linecap="round" stroke-linejoin="round">
<g id="us-states">
<path d="M 211.08 83.58 211.48 85.53 212.04 88.41 212.3 89.04 212.55 89.4 212.45 89.62 212.71 89.76 212.32 90.05 212.34 90.33 212.14 90.72 212.36 91.4 212.2 92 212.45 92.62 211.33 92.63 206.55 92.63 206.48 92.93 206.99 93.37 206.9 93.74 207.08 93.93 206.74 94.26 206.43 94.34 205.86 93.96 205.79 93.4 205.62 93.34 205.41 93.77 205.33 94.18 204.75 94.06 204.58 90.59 205.1 86.28 205.42 83.79 205.19 83.55 207.1 83.54 211.08 83.58 Z" id="AL"/>
<path d="M 106.64 37.86 106.71 37.49 107.2 37.71 107.12 38.1 106.54 38.05 106.64 37.86 Z M 106.11 37.17 106.54 37.44 106.3 37.84 106.11 37.7 106.11 37.17 Z M 103.52 34.87 104.06 34.82 104.3 34.9 104.22 35.24 103.74 35.31 103.3 35.1 103.52 34.87 Z M 102.11 35.06 103.09 35.14 103.34 35.57 104.32 36.06 104.66 36.36 104.68 36.61 104.92 36.66 104.96 36.98 105.36 37.3 105.41 37.59 105.67 37.5 105.78 37.73 105.83 38.61 105.67 38.81 105.03 38.77 104.86 38.32 104.63 38.36 104.17 38.02 104.04 38.14 103.65 38.02 103.71 38.36 104.08 38.27 104.31 38.4 104.2 38.86 103.76 38.81 103.11 38.22 102.92 37.92 102.96 37.61 102.43 37.64 102.43 37.4 102.83 37.38 103.23 37.17 103.06 36.79 102.58 36.72 102.51 36.12 102.33 35.82 102.01 36.03 101.89 35.7 102.22 35.54 101.95 35.15 102.11 35.06 Z M 101.79 36.87 102.22 37.02 102.52 36.83 102.82 36.92 102.51 37.25 102.02 37.15 101.79 36.87 Z M 101.4 33.75 101.08 33.52 101.45 33.37 102.68 33.58 103.23 33.57 103.62 33.99 104.32 34.34 104.25 34.6 103.88 34.74 103.37 34.68 103.01 34.84 102.51 34.74 101.96 34.84 101.85 34.31 101.9 33.96 101.49 33.94 101.4 33.75 Z M 100.93 34.77 100.62 34.59 100.28 34.22 100.24 33.93 100.52 33.8 100.8 33.93 100.87 33.7 101.76 34.11 101.85 34.5 101.54 34.55 101.34 35 101.56 35.13 101.29 35.65 100.94 35.54 100.89 35.86 100.67 35.7 100.53 35.06 100.93 34.77 Z M 99.75 35.21 99.67 35.47 99.36 35.33 98.52 34.32 97.98 34.02 98.17 33.78 97.96 33.21 97.36 32.75 97.97 32.3 98.24 32.49 98.78 32.64 99.26 32.66 99.27 33.02 99.75 34.21 99.75 35.21 Z M 99.57 30.81 100.34 30.98 100.79 30.96 100.77 31.13 101.41 31.76 100.97 31.66 100.85 31.87 101.34 32.19 101.49 32.76 101 32.91 100.84 33.11 100.06 33.52 99.82 33.51 99.72 33.07 99.88 32.81 99.81 32.43 99.54 31.95 99.59 31.71 99.41 31.1 99.11 30.84 99.03 30.39 99.57 30.81 Z M 96.97 32.84 97.3 32.84 97.63 33.25 97.48 33.53 96.97 33.6 97.05 33.15 96.97 32.84 Z M 96.02 30.85 96.7 30.86 97.15 30.66 97.79 30.94 97.45 31.23 97.57 31.35 97.89 31.01 98.68 31.12 99.11 31.37 98.86 31.82 99.06 31.86 99.32 32.45 98.73 32.54 97.62 32.05 97.66 32.55 97.31 32.75 96.9 32.66 96.65 32.35 96.18 32.14 95.82 31.71 95.36 31.51 95.38 31.15 95.69 31.02 95.79 30.71 96.02 30.85 Z M 71.49 26.32 70.53 26.89 70.46 27.12 69.69 27.27 69.85 26.92 70.68 26.56 71.21 26.16 71.49 26.32 Z M 70.4 25.46 70.27 25.94 69.95 26.42 69.5 26.26 69.87 25.7 70.4 25.46 Z M 69.89 3.51 70.12 3.61 71.3 3.71 71.93 3.65 72.78 3.65 73.72 3.74 74.26 3.69 74.8 3.87 75.77 4.08 77.08 4.13 77.44 4.01 78.31 3.94 78.68 3.77 79.62 3.75 79.61 3.86 80.17 3.8 81.33 3.97 82.11 4.26 82.85 4.4 83.01 4.52 83.68 4.54 84.31 4.76 84.44 4.89 84.82 4.78 85.3 4.87 85.3 26.08 86.35 26.27 86.49 26.07 87.6 26.36 88.26 26 89.64 25.96 89.39 26.57 89.74 26.78 90.52 26.98 90.69 27.3 93.01 28.5 93.37 29.26 93.78 29.04 94.77 28.68 95.33 28.67 95.59 28.4 95.57 27.99 95.97 27.99 96.07 27.63 96.77 27.54 97.83 27.23 98.86 27.76 98.76 28.09 99.01 28.41 99.6 28.49 100.33 28.97 100.28 29.11 100.62 29.37 101.55 29.67 103.07 30.97 103.29 31.32 103.76 31.67 104.46 32.44 105.16 33.1 104.9 33.37 105.62 33.47 105.44 33.87 106.03 34.03 106.1 34.49 106.69 34.47 107.81 34.94 108.5 35.03 108.86 35.25 109.21 35.31 109.31 35.54 110.04 35.6 110.27 35.87 109.93 36.38 109.98 36.81 110.31 37.5 110.06 37.68 109.51 38.31 108.71 38.77 108.49 38.53 108.19 38.61 107.98 38.14 108.04 37.94 107.79 37.7 108.32 37.45 108.17 37.36 107.64 37.68 107.36 37.48 107.04 37.59 106.09 37.09 106.41 36.54 105.82 36.73 105.79 37 105.32 36.79 105.22 36.53 105.54 36.25 105.44 35.96 105 36.2 104.55 35.69 104.27 35.79 104.1 35.36 104.54 35.09 104.96 35.09 104.83 34.75 105.06 34.32 104.71 34.33 103.99 33.96 103.48 33.51 102.28 33.19 102.31 32.28 101.92 32.17 102.01 31.79 101.61 31.69 101.03 31.2 100.87 30.94 99.86 30.85 98.75 30.18 98.28 28.61 98.06 28.97 98.16 29.29 98.6 29.92 98.49 30.01 98.79 30.52 98.73 30.86 98.29 30.79 97.94 30.41 97.48 30.35 96.84 30.45 96.85 29.92 96.45 29.47 96.09 29.6 94.66 29.13 94.54 29.27 95.32 29.42 95.93 29.79 96.17 29.8 96.24 30.1 96.55 30.45 95.77 30.65 95.31 30.52 95.3 30.84 94.7 30.6 94.5 30.43 94.13 30.43 93.09 29.98 92.34 29.58 92.26 29.34 91.84 29 90.67 28.75 90.02 28.49 88.89 28.19 88.14 27.9 88.21 27.59 88.42 27.69 88.67 27.49 88.42 27.04 88.73 26.79 88.58 26.68 88.02 27.15 86.85 27.47 85.46 27.35 84.29 27.07 84.24 26.84 83.69 26.89 83.11 26.73 81.8 26.58 81.04 26.57 79.34 26.69 78.73 26.78 77.96 26.46 77 26.31 76.7 26.11 76.59 25.77 75.93 25.8 75.71 26.1 74.54 25.7 74.35 25.53 73.15 25.85 72.56 26.23 72.31 25.87 72.56 25.67 72.91 25.72 74.05 25.46 73.9 25.26 73.37 25.36 73.16 25.1 72.66 25.07 72.16 24.41 71.98 24.57 71.28 24.65 71.06 24.57 70.82 24.78 69.95 24.7 69.91 24.94 69.33 25 69.05 24.92 69.25 24.49 69 24.51 68.61 24.95 69.15 25.1 69.2 25.43 69.54 25.77 69.34 26.15 68.9 26.02 68.78 26.21 69.2 26.28 69.44 26.78 68.83 26.88 68.49 26.78 67.96 26.92 67.69 26.81 66.98 26.82 67 26.63 66.67 26.76 66.48 26.99 66.18 26.78 65.81 27.08 65.97 27.22 65.45 27.39 64.97 27.42 64.79 27.65 64.28 27.86 63.93 27.79 63.54 28.04 63.23 28.02 62.59 28.53 61.89 28.57 61.67 28.41 61.24 28.68 60.37 28.47 60.57 28.09 61.14 27.95 61.52 27.98 61.63 27.83 62.3 27.53 62.33 27.28 61.44 27.61 60.71 27.42 60.62 27.28 60.99 26.71 61.63 26.3 61.73 25.96 61.91 25.9 61.99 25.54 61.67 25.14 62.45 24.99 63.94 24.42 64.3 24.64 64.76 24.7 65.45 24.47 64.69 24.16 64.39 23.92 63.79 23.95 63.37 23.83 63.25 23.93 62.54 24.09 62.21 24.41 61.5 24.48 60.77 24.84 60.7 25.08 60.14 25.2 60.01 25.46 59.61 25.62 59.43 26.08 58.66 26.38 59.03 26.62 58.72 26.97 58 27.03 57.94 27.48 57.26 27.64 57.05 27.45 56.72 27.8 56.32 27.81 56.39 28.06 55.51 28.21 55.34 28.9 56.34 28.93 57.14 29.12 57.36 29.34 57.04 29.7 56.5 29.93 56.01 29.94 55.96 30.14 55.63 30.21 55.78 30.46 55.45 30.84 54.73 31.18 54.32 31.18 53.92 31.31 53.53 31.28 53.23 31.42 53.32 31.61 52.76 31.71 52.65 31.98 52.26 31.81 51.84 32.34 51.13 32.3 51.18 32.59 50.76 32.51 50.46 32.64 50.46 33.02 49.99 33.62 49.23 33.7 48.61 33.97 48.51 34.12 48.11 33.91 47.44 34.48 47.25 34.32 46.88 34.37 46.79 34.69 46.41 34.82 45.95 34.77 45.59 35.09 46.22 35.19 45.54 35.91 43.57 36.15 43.02 36.78 42.89 36.64 42.96 36.25 42.58 36.18 42.09 36.33 42.02 36.49 41.26 36.76 40.93 37.05 40.83 36.84 40.64 37.09 40.19 36.93 39.35 37.32 38.73 37.3 38.82 37 38.55 36.72 38.3 36.95 38.32 37.2 37.49 37.96 37.2 37.78 37.12 38.06 36.54 38.01 36.46 37.56 36.11 37.46 35.98 37.63 36.3 37.83 36.15 38.14 35.69 38.3 35.34 37.95 34.91 37.92 34.84 38.06 35.26 38.26 34.49 38.58 35.01 38.67 35.03 38.82 34.59 38.71 34.01 39.01 32.88 38.99 32.32 39.19 32.27 39.34 31.62 39.52 31.15 39.45 30.98 39.03 31.46 38.89 31.82 38.38 32.29 38.37 33.31 38.04 34.13 38.02 34.44 38.35 34.68 38.11 34.63 37.84 35.1 37.71 35.61 37.71 36.3 37.12 37.05 36.58 38.05 36.11 39.22 35.9 39.7 36 40.18 35.86 40.3 36.06 40.04 36.28 40.32 36.46 40.41 36.18 41 36.16 41.16 36.33 41.52 36.39 41.53 36.18 40.93 36 40.88 35.87 41.28 35.29 41.82 34.95 42.54 34.63 43.68 34.34 44.52 33.93 44.91 34.08 45.24 34.02 45.1 33.76 45.2 33.51 45.83 32.99 46.7 32.65 47.4 32.2 47.36 31.95 47.92 30.19 48.79 29.72 48.69 29.34 46.61 29.88 45.95 29.82 45.78 29.59 45.41 29.49 45.29 29.24 44.95 29.36 44.74 29.74 45.1 30.23 44.67 30.44 44.28 30.36 43.53 29.59 43.02 29.21 42.76 29.21 42.59 29.49 42.36 29.54 42.03 29.31 41.62 29.27 41.43 28.88 40.21 29.32 39.12 29.63 39.03 29.8 38.17 30.06 37.75 29.83 38.14 29.55 38 28.91 37.71 28.22 38.29 27.94 37.81 27.37 37.4 27.04 37.08 26.57 36.59 26.37 36.47 26.78 35.88 26.87 34.95 27.13 33.83 27.24 33.22 27.22 32.7 27.08 32.64 26.72 32.19 26.61 31.48 26.11 30.89 26.01 30.19 25.46 30.66 25.21 30.76 24.75 30.4 24.85 30.35 24.57 30.52 24.33 30.06 24.12 30.01 24.34 29.46 24.26 29.38 23.87 28.95 23.82 28.71 23.56 28.72 23.24 28.29 23.39 28.21 23.08 28.75 23 28.31 22.65 29.08 22.63 29.08 22.2 29.27 21.92 30.7 21.01 31 20.74 31.21 20.79 31.08 20.4 31.63 19.74 32.1 19.48 32.99 19.37 33.67 19.48 34.63 19.88 35.25 19.83 36.11 19.44 36.99 18.86 37.44 18.8 37.55 18.95 38.62 18.95 39.57 18.82 40.41 18.21 40.41 18.06 39.99 17.49 39.94 17.16 39.28 16.79 39.03 16.48 39.7 16.57 40.34 16.31 40.37 16.06 39.55 15.6 38.94 15.96 38.37 15.9 37.84 16.1 37.23 16.15 37.08 16.28 36.38 16.48 36.17 16.82 35.82 16.96 35.66 16.56 35.24 16.47 34.94 16.78 34.77 16.63 33.98 16.41 32.38 16.42 31.23 16.67 30.8 16.71 29.87 16.56 28.1 16.38 27.64 16.25 27.43 16.02 27.59 15.71 26.96 15.45 27.08 15.17 27.48 15.02 27.35 14.66 26.72 14.66 26.2 14.56 25.18 14.48 24.64 14.29 23.82 14.11 23.75 13.87 25.03 13.56 26.64 13.04 27.78 12.73 28.42 12.9 29.08 12.94 29.23 12.69 28.83 12.65 28.8 12.44 30.38 12.09 32.15 11.83 33.11 11.81 33.63 11.89 33.36 12.27 33.46 12.53 33.26 12.72 33.6 13.01 34.22 12.96 35 13.01 35.91 12.95 36.17 13.06 36.77 13.09 37.29 12.98 37.97 13.1 38.63 12.6 39.11 12.58 39.43 12.68 39.59 12.39 38.68 12.26 37.81 12.37 37.9 11.99 37.22 11.6 36.47 11.47 36.25 11.11 36.83 11.02 37.58 11.38 37.44 11.67 37.8 11.89 38.58 12.16 38.77 11.88 37.87 11.52 38.26 10.87 37.95 10.76 37.07 10.9 36.16 10.86 36.02 10.75 35.56 10.86 33.66 10.59 33.62 10.3 33.05 9.67 32.59 9.43 31.86 9.23 30.36 8.69 29.68 8.47 29 8.42 27.98 8.05 26.98 7.84 26.93 7.77 27.68 7.65 28.01 7.31 28.04 6.61 30.05 6.66 32.49 6.5 33.12 6.37 34.13 6.02 35.09 5.49 35.29 4.95 35.7 4.49 36.54 4.11 36.9 3.82 37.95 3.36 38.11 3.49 38.98 3.52 40.25 3.29 41.05 3.04 42.95 2.27 43.67 2.23 43.74 2.34 44.48 2.26 45.2 2.28 46.62 2.18 48.01 1.85 49.39 1.15 49.95 1 50.05 1.12 52.18 1.41 52.35 1.61 51.62 1.87 51.28 1.88 51.29 2.23 52.36 2.12 52.43 1.93 52.91 1.76 53.07 1.86 53.43 1.46 54.49 1.82 54.32 2.09 54.98 2.17 55.36 2.33 55.93 2.07 56.94 2.06 57.51 1.97 58.98 2.06 59.73 2.16 59.37 2.69 60.73 2.83 60.83 2.97 62.16 3.2 62.18 3.09 63.13 2.94 64.05 2.95 64.07 3.08 64.6 3.09 65.16 2.92 66.08 2.89 66.73 2.97 67.61 3.15 68.02 3.11 68.61 3.38 68.94 3.28 69.49 3.35 69.89 3.51 Z M 58.18 31.26 58.17 31.36 57.39 31.21 57.95 30.62 58.46 30.57 58.81 30.04 59.19 30.51 59.51 30.35 60.14 30.61 60.14 30.97 59.23 31.02 58.83 31.18 58.18 31.26 Z M 55.87 32.37 56.52 32.07 55.93 32 55.92 31.74 56.41 31.57 56.75 31.69 56.8 31.95 57 31.78 57.01 31.4 57.44 31.57 57.51 31.32 57.89 31.47 58.33 31.47 58.68 31.33 59.25 31.57 59.25 32.23 59.97 32.18 59.5 32.61 58.63 32.44 58.96 32.73 58.71 32.96 58.26 32.85 58.25 33.3 57.56 33.42 57.34 33.61 56.92 33.43 56.47 33.91 56.12 33.96 55.75 34.17 55.61 33.66 55.09 33.93 55.06 33.77 54.59 33.61 54.55 33.15 54.09 32.96 54.35 32.43 55.26 32.09 55.82 32.12 55.87 32.37 Z M 54.56 34.49 54.09 34.95 53.94 34.88 54.56 34.49 Z M 52.07 36.03 52.43 36.06 52.3 36.53 51.7 36.47 51.6 36.31 52.07 36.03 Z M 42.4 37.49 42.26 37.97 41.57 38.37 41.9 37.76 42.14 37.83 42.4 37.49 Z M 40.97 37.32 41.39 37.32 41.38 37.56 40.96 37.84 40.59 37.65 40.35 37.83 40.21 37.4 40.34 37.27 40.97 37.32 Z M 37.03 38.17 37.08 38.37 36.82 38.5 36.62 38.29 37.03 38.17 Z M 36.67 18.52 36.33 18.75 36.22 18.55 36.67 18.52 Z M 35.79 39.29 36.27 39.38 36.22 39.57 35.84 39.55 35.79 39.29 Z M 29.55 39.73 29.72 39.99 29.37 40.1 29.24 39.83 29.55 39.73 Z M 29.12 40.05 28.42 40.3 28.27 40.13 28.57 39.9 29.12 40.05 Z M 27.7 25.96 28.22 25.87 28.34 26.04 28.8 26 29.24 26.15 29.33 26.79 29.09 27.01 28.51 27.13 28.39 27.35 27.53 27.1 27.13 27.12 26.27 26.79 25.97 26.79 25.48 26.61 25.3 26.31 25.55 26.23 26.4 26.31 26.79 26.07 27.22 26.05 27.4 25.89 27.7 25.96 Z M 27.68 40.37 28.05 40.55 27.29 40.97 27.3 41.05 28.26 40.74 28.27 40.91 27.89 41.12 27.27 41.26 27.2 41.47 26.53 41.69 25.95 41.71 25.56 41.92 24.84 42.1 24.46 41.9 25.21 41.67 25.45 41.71 26.02 41.51 25.89 41.28 26.21 41.05 26.69 41.16 26.74 41.01 26.22 40.96 25.94 40.8 26.18 40.52 27.07 40.36 27.25 40.67 27.68 40.37 Z M 22.19 42.31 23.06 41.88 23.11 41.69 23.45 41.48 23.97 41.38 24.24 41.49 24.34 41.79 23.37 42.12 22.85 42.59 22.43 42.75 22.19 42.31 Z M 20.02 42.91 20.12 43.14 19.53 43.15 19.47 43 20.02 42.91 Z M 19.11 33.09 18.8 33.3 18.73 33.09 19.11 33.09 Z M 17.93 43.36 18.08 43.57 17.65 43.72 17.59 43.5 17.93 43.36 Z M 15.49 18.34 17.29 18.67 18.34 18.39 18.81 18.41 19.23 18.57 19.34 18.85 20.25 19 20.54 19.13 21.72 19.19 22.43 19.29 22.04 19.63 21.47 19.56 20.86 19.62 20.55 19.77 20.26 20.1 19.83 19.79 19.32 19.58 18.85 19.56 18.62 19.32 17.48 19.02 16.94 19.01 16.12 19.27 15.5 19.13 15.24 18.86 15.49 18.34 Z M 13.92 44.06 13.96 44.32 13.52 44.37 13.61 44.14 13.92 44.06 Z M 11.21 44.6 11.51 44.7 12.35 44.69 12.39 44.76 11.38 44.88 11.21 44.6 Z M 9.63 44.3 9.62 44.08 9.94 43.99 10.4 44.22 10.23 44.43 9.95 44.42 10.04 44.65 9.61 44.68 8.69 44.93 8.16 44.85 8.31 44.68 8.87 44.7 9.63 44.3 Z M 4.76 45.27 5.17 45.24 5.17 45.52 4.64 45.49 4 45.82 3.75 45.37 4.02 45.36 4.06 45.03 4.4 45.01 4.4 45.26 4.76 45.27 Z M 3.2 45.06 3.45 45.18 3.28 45.56 2.93 45.67 2.92 45.44 3.2 45.06 Z M 1 45.13 1.39 45.14 1.73 45.41 1.36 45.73 1 45.13 Z M 798.55 42.69 798.98 42.84 799 43.07 798.09 43.21 797.5 42.84 797.5 42.66 798.55 42.69 Z" fill-rule="evenodd" id="AK"/>
<path d="M 157.86 79 157.85 91.87 153.25 91.87 150.59 91.03 144.76 89.24 144.97 88.73 145.41 88.64 145.54 88.44 145.41 88.02 145.1 88.01 144.95 87.16 145.41 86.84 145.48 86.5 145.39 85.97 145.66 85.57 146.02 85.42 146.3 85.12 145.85 84.8 145.54 84.2 145.17 83.83 145.17 83.54 145.3 83.23 145.25 82.81 145.07 82.37 144.93 81.04 145.76 80.96 146.04 81.23 146.26 81.22 146.5 80.83 146.5 79 154.56 78.99 157.86 79 Z" id="AZ"/>
<path d="M 201.72 81.28 201.64 81.7 201.31 81.83 201.23 82.17 200.81 82.55 200.85 83.09 200.62 83.49 200.4 83.55 200.53 83.75 200.17 83.93 200.01 84.31 199.78 84.41 199.81 84.86 199.4 84.98 199.41 85.13 198.94 85.51 199.08 85.76 198.67 86.12 198.31 86.81 198.71 87.11 198.51 87.3 198.63 87.77 198.46 88.08 192.91 88.04 191.93 88.04 191.93 86.84 191.6 86.74 191.16 86.85 190.92 86.64 191.05 82.65 190.62 80.13 190.95 80.13 200.76 80.15 200.96 80.58 200.61 80.86 200.25 81.28 201.72 81.28 Z" id="AR"/>
<path d="M 132.98 67.66 132.99 71.59 132.98 74.46 135.9 76.5 138.66 78.51 140.84 80.13 142.41 81.34 145.17 83.54 145.17 83.83 145.54 84.2 145.85 84.8 146.3 85.12 146.02 85.42 145.66 85.57 145.39 85.97 145.48 86.5 145.41 86.84 144.95 87.16 145.1 88.01 145.41 88.02 145.54 88.44 145.41 88.64 144.97 88.73 141.96 88.94 139.51 89.14 139.23 88.84 139.22 88.37 139.05 87.81 138.72 87.41 138.01 86.86 137.11 86.35 136.93 86.49 136.58 86.4 136.63 86.18 136.24 85.72 135.7 85.82 134.76 85.48 134.62 85.21 133.99 84.87 133.26 84.89 132.67 84.74 131.91 84.8 131.51 84.5 131.6 83.87 131.46 83.77 131.55 83.32 130.95 82.98 130.93 82.52 130.7 82.5 130.33 82.1 130.07 82.01 129.96 81.76 129.09 80.83 128.68 80.56 128.59 79.82 128.76 79.89 128.92 79.45 128.6 79.05 128.2 79.1 127.68 78.74 127.49 78.46 127.53 78.18 127.27 77.82 127.27 77.22 127.69 77.22 127.52 76.39 127.33 76.48 127.29 76.89 126.85 76.98 126.31 76.66 126.23 76.13 125.88 75.71 125.42 75.45 125.17 75.15 124.5 74.56 124.61 74.39 124.3 73.63 124.43 73.21 124.24 72.57 123.65 71.95 123.08 71.6 122.97 71.19 123.54 70.2 123.65 69.86 123.54 69.6 123.75 68.92 123.56 68.29 123.31 68.15 123.41 67.65 125.64 67.64 127.58 67.62 130.63 67.66 132.98 67.66 Z" id="CA"/>
<path d="M 169.19 69.91 173.73 69.91 173.73 72.19 173.76 79.02 171.58 79 168.55 79.02 162.8 79.02 161.55 79 157.86 79 157.86 76.35 157.83 76.11 157.84 74.18 157.85 69.92 160.41 69.91 165.39 69.92 169.19 69.91 Z" id="CO"/>
<path d="M 242.43 67.64 242.43 68.98 242.3 69.19 242.1 69.15 241.1 69.33 239.92 69.28 239.41 69.59 238.86 69.69 238.22 69.95 238.06 69.69 238.62 69.44 238.45 69.25 238.6 67.54 239.59 67.56 242.43 67.6 242.43 67.64 Z" id="CT"/>
<path d="M 234.23 72.64 234.01 72.91 233.78 73.06 233.83 73.42 234.16 73.75 234.25 74.31 234.74 74.9 234.96 74.92 235.06 75.71 233.59 75.68 233.38 72.82 233.77 72.57 234.23 72.64 Z" id="DE"/>
<path d="M 212.45 92.62 212.76 93.28 215.87 93.43 218.78 93.6 218.89 94.09 219.16 94.08 219.26 93.62 219.18 93.19 219.39 93.02 219.91 93.21 220.53 93.29 220.67 94.28 220.96 95.38 221.61 96.84 222.62 98.39 222.47 98.5 222.52 99.23 222.95 100.03 223.6 101.66 223.74 102.17 223.73 102.69 223.48 104.57 223.27 104.61 223.04 105.19 223.12 105.38 222.68 105.8 222.51 105.7 222.09 105.88 221.37 105.98 221.15 105.74 221.25 105.39 220.74 104.39 220.35 104.2 220 104.34 219.72 103.78 219.65 103.32 219.18 102.81 219.06 102.47 219.14 101.99 218.88 101.9 218.94 102.18 218.7 102.26 217.98 101.03 217.7 100.72 218.38 99.81 217.93 99.86 217.63 100.15 217.34 99.7 217.73 98.45 217.81 97.42 217.54 97.17 217.45 96.84 217.01 96.76 216.5 96.22 216.09 95.99 216.07 95.66 215.78 95.53 215.55 95.16 214.67 94.66 213.92 94.77 213.95 95.12 213.7 95.06 212.76 95.48 211.75 95.58 211.78 95.33 211.54 95.03 210.36 94.36 209.51 94.08 208.75 94 208.12 94.05 206.74 94.26 207.08 93.93 206.9 93.74 206.99 93.37 206.48 92.93 206.55 92.63 211.33 92.63 212.45 92.62 Z" id="FL"/>
<path d="M 216.75 83.54 216.27 84.03 216.23 84.26 216.99 84.75 217.22 84.71 217.57 85.21 217.65 85.47 218.01 85.94 218.53 86.23 218.83 86.65 219.44 87.04 219.41 87.3 219.81 87.72 220.42 88.07 220.57 88.44 220.59 88.93 220.91 89.09 221.27 89.7 221.28 90.08 221.8 90.28 221.24 91.05 221.14 91.45 220.91 91.8 220.88 92.16 220.63 92.32 220.53 93.29 219.91 93.21 219.39 93.02 219.18 93.19 219.26 93.62 219.16 94.08 218.89 94.09 218.78 93.6 215.87 93.43 212.76 93.28 212.45 92.62 212.2 92 212.36 91.4 212.14 90.72 212.34 90.33 212.32 90.05 212.71 89.76 212.45 89.62 212.55 89.4 212.3 89.04 212.04 88.41 211.48 85.53 211.08 83.58 214 83.57 215.6 83.58 216.75 83.54 Z" id="GA"/>
<path d="M 52.07 119.99 51.51 119.8 51.42 119.6 51.49 119.09 51.1 118.22 51.41 117.93 51.63 117.53 51.47 117.27 51.52 117 52.15 117.32 52.86 117.56 53.3 117.9 53.3 118.2 53.94 118.69 53.55 119.09 52.84 119.27 52.34 119.57 52.07 119.99 Z M 49.9 115.27 50.16 115.58 50.5 115.44 51.23 115.8 51.12 116.13 50.37 116.29 50.22 116.23 50.19 115.83 49.8 115.74 49.65 115.52 49.9 115.27 Z M 49.01 114.86 48.78 115.09 48.26 115.09 48.42 114.83 49.01 114.86 Z M 46.8 113.75 47.05 114.29 46.93 114.6 46.44 114.65 46.12 114.01 46.41 114 46.8 113.75 Z M 43.36 112.54 43.62 112.57 43.74 112.81 43.67 113.14 43.41 113.35 42.69 113.09 42.77 112.72 43.36 112.54 Z" fill-rule="evenodd" id="HI"/>
<path d="M 141.96 51.75 141.96 54.08 142.69 54.71 142.7 55.34 143.14 55.61 143.6 55.71 143.65 55.87 144.49 56.48 144.59 56.73 145.19 56.97 145.22 57.11 145.88 57.1 145.55 57.95 145.49 58.48 145.73 58.83 145.32 59.08 145.48 59.32 145.37 59.56 145.85 59.8 146.41 59.49 146.63 59.24 147.04 59.46 146.98 59.65 147.21 60.09 147.58 60.55 147.85 60.71 147.84 61.14 148.1 61.33 148.57 61.36 148.87 62.09 149.13 62.21 149.37 62 150.08 62.01 150.6 61.82 150.91 61.93 151.45 61.83 151.56 61.95 152.02 61.87 152.54 61.39 152.9 61.79 153.31 62.03 153.31 67.65 150.78 67.66 146.51 67.66 139.73 67.65 139.73 63.49 140.03 62.75 139.84 62.56 139.41 62.52 139.25 62.21 139.71 61.41 139.94 61.33 140.18 60.99 140.14 60.78 140.4 60.51 140.54 60.11 141.01 59.44 140.83 59.13 140.29 58.97 139.98 58.58 139.97 58.18 139.67 57.79 139.71 57.6 139.69 54.56 139.72 51.75 141.96 51.75 Z" id="ID"/>
<path d="M 199.65 66.49 203.85 66.53 206.09 66.53 206.02 66.96 206.37 67.47 206.73 68.31 206.72 73.67 206.47 74.08 206.75 74.56 206.79 74.96 206.5 75.28 206.43 75.58 206.02 76.07 205.76 76.11 205.82 76.39 205.65 76.5 205.51 77.04 205.58 77.19 205.29 77.51 205.5 77.91 204.56 78.12 204.48 78.36 204.69 78.65 204.4 78.84 203.57 78.49 203.31 78.52 202.96 78.92 203.07 79.04 202.71 79.02 202.2 78.37 202.39 78.22 202.2 77.78 202.2 77.44 201.47 76.95 201.22 77 200.97 76.7 200.3 76.24 200.31 75.88 200.7 75.3 200.63 75.09 200.86 74.81 200.53 74.65 200.04 74.55 199.78 74.76 199.6 74.63 199.45 73.88 198.69 73.39 198 72.81 197.71 72.11 197.69 71.65 197.89 71.33 197.92 70.92 198.56 70.67 198.62 70.32 198.92 70.1 198.95 69.7 198.58 69.38 198.73 68.98 199.61 68.87 200.32 68.58 200.4 68.23 200.7 68.08 200.78 67.65 200.72 67.36 200.21 67.14 200.15 66.9 199.65 66.49 Z" id="IL"/>
<path d="M 212.9 68.34 212.91 71.06 212.87 74.23 212.7 74.33 212.88 74.95 212.49 74.96 212.06 75.17 211.48 75.07 211.5 75.52 211.12 75.71 210.97 75.99 210.57 76.11 210.36 76.68 210.1 76.83 209.59 76.62 209.5 76.35 209 76.64 209.04 76.89 208.53 76.98 208.38 76.75 207.81 76.98 207.62 77.21 207.05 76.88 206.75 76.95 206.55 76.79 206.37 76.95 205.79 76.98 205.58 77.19 205.51 77.04 205.65 76.5 205.82 76.39 205.76 76.11 206.02 76.07 206.43 75.58 206.5 75.28 206.79 74.96 206.75 74.56 206.47 74.08 206.72 73.67 206.73 68.31 206.95 68.46 207.65 68.46 208.32 68.2 210.21 68.2 212.9 68.2 212.9 68.34 Z" id="IN"/>
<path d="M 198.35 64.24 198.37 64.58 198.71 64.8 198.43 65.07 198.51 65.58 198.68 65.94 199.49 66.21 199.65 66.49 200.15 66.9 200.21 67.14 200.72 67.36 200.78 67.65 200.7 68.08 200.4 68.23 200.32 68.58 199.61 68.87 198.73 68.98 198.58 69.38 198.95 69.7 198.92 70.1 198.62 70.32 198.56 70.67 197.92 70.92 197.89 71.33 197.64 71.25 197.18 70.79 196.94 70.81 193.71 70.87 190.58 70.89 188.01 70.86 187.75 70.56 187.87 69.97 187.65 69.46 187.66 68.89 187.26 68.69 187.2 68.38 187.34 68.11 187.19 67.71 186.88 67.56 186.47 66.54 186.05 66.04 186.24 65.71 186.32 65.26 186.49 65.1 186.21 64.87 186.28 64.48 186.16 64.29 186.46 64.24 198 64.24 198.35 64.24 Z" id="IA"/>
<path d="M 189.06 72.19 189.28 72.4 190.01 72.57 189.5 73.23 189.79 73.46 190.15 73.99 190.63 74.1 190.62 79 178.2 79 173.76 79.02 173.73 72.19 174.07 72.19 189.06 72.19 Z" id="KS"/>
<path d="M 217.92 75.77 217.86 76.45 218.13 76.89 218.49 77.22 218.6 77.49 219.04 77.75 219.34 77.78 218.47 78.39 217.63 78.73 217.63 78.9 217.3 79.05 217.27 79.25 216.84 79.34 216.69 79.59 215.47 79.91 215.43 79.95 213.49 79.92 211.8 79.85 211.35 79.87 208.84 79.79 205.98 79.84 205.48 79.74 205.52 80.15 202.7 80.12 202.42 80.15 202.55 79.86 202.88 79.96 203.07 79.04 202.96 78.92 203.31 78.52 203.57 78.49 204.4 78.84 204.69 78.65 204.48 78.36 204.56 78.12 205.5 77.91 205.29 77.51 205.58 77.19 205.79 76.98 206.37 76.95 206.55 76.79 206.75 76.95 207.05 76.88 207.62 77.21 207.81 76.98 208.38 76.75 208.53 76.98 209.04 76.89 209 76.64 209.5 76.35 209.59 76.62 210.1 76.83 210.36 76.68 210.57 76.11 210.97 75.99 211.12 75.71 211.5 75.52 211.48 75.07 212.06 75.17 212.49 74.96 212.88 74.95 212.7 74.33 212.87 74.23 213.74 74.23 214.2 74.7 214.24 74.9 214.95 74.99 215.46 75.3 215.82 75.14 216.68 75.31 216.93 75.09 217.25 75.01 217.35 75.4 217.61 75.46 217.92 75.77 Z" id="KY"/>
<path d="M 198.46 88.08 198.67 88.34 198.51 88.44 198.48 88.9 198.82 89.19 198.87 89.86 198.59 90.38 198.06 90.71 197.92 91.22 197.7 91.17 197.66 92 197.39 92.02 197.55 92.47 197.39 92.63 201.68 92.63 201.45 93.38 201.83 93.88 201.91 94.25 202.19 94.49 201.52 94.8 201.47 95.02 202.01 95.17 202.25 94.81 202.72 95.17 202.69 95.46 202.41 95.58 201.9 95.47 201.96 95.68 201.79 96 202.23 96.29 202.92 96.38 203.17 96.71 203.37 96.76 203.01 97.15 202.61 97.07 202.28 96.68 201.44 96.46 201.44 96.08 201.03 96.2 201.06 96.53 200.87 96.82 200.57 96.87 200.35 96.54 199.83 96.53 199.64 96.87 199.29 96.97 198.92 96.76 198.62 96.74 198.33 96.18 197.82 95.93 197.62 95.97 197.43 95.49 196.83 95.56 196.82 95.27 196.23 95.54 196.31 95.76 195.86 95.95 195.16 95.85 194.35 95.54 193.78 95.41 192.55 95.52 192.39 95.61 192.19 95.38 192.72 94.57 192.55 94.14 192.71 93.9 192.64 93.59 192.86 93.35 193.1 92.77 193.06 92.29 192.44 91.37 192.43 90.87 191.93 90.37 191.93 88.04 192.91 88.04 198.46 88.08 Z" id="LA"/>
<path d="M 244.92 65.25 244.65 65.09 244.68 64.86 244.32 64.6 244.17 61.62 244.06 60.15 245.05 59.84 244.88 59.68 245.26 59.33 245.64 59.17 245.57 59.03 245.93 58.82 245.82 58.42 246.04 57.82 246.39 57.62 246.53 56.99 248.28 55.25 248.69 55.32 248.71 55.75 249.01 55.9 249.75 55.65 250.21 55.65 250.53 55.49 251.16 55.85 251.54 56.14 251.56 58.69 251.51 59.3 252.3 59.46 252.18 59.73 252.38 59.97 252.22 60.2 252.54 60.55 252.97 60.47 253.38 61.28 252.91 61.64 252.63 61.5 252.41 61.75 252.08 61.69 252.05 61.9 251.62 61.88 250.95 62.36 250.79 62.03 250.55 62 250.67 62.36 250.14 62.54 250.02 62.25 249.77 62.4 249.19 62.4 249.17 62.06 248.83 62.14 248.89 62.38 248.56 62.87 248.63 63.01 248.2 63.28 247.78 63.18 247.53 63.47 247.18 63.51 246.9 63.74 246.55 63.69 246.45 63.44 245.94 63.84 246.08 64.09 245.7 64.18 245.68 64.39 245.26 64.65 244.92 65.25 Z" id="ME"/>
<path d="M 225 72.82 233.38 72.82 233.59 75.68 235.06 75.71 234.61 76.66 234.26 76.7 233.64 76.84 233.16 76.94 233.17 76.57 232.98 76.42 233.24 76.25 232.89 75.88 232.78 76.04 232.31 76.01 232.15 75.6 232.3 75.6 232.31 75.06 232.46 74.85 232.26 74.13 232.51 73.7 232.89 73.63 232.96 73.19 232.67 73.24 232.66 73.47 232.06 73.75 231.89 74.02 231.85 74.67 231.63 74.99 231.73 75.51 232.02 75.87 231.99 76.14 232.17 76.42 232.07 76.6 231.55 76.24 230.81 76.07 230.58 75.72 230.16 75.92 230 75.65 230.33 75.3 230.53 74.94 230.83 74.7 230.54 74.48 230.36 74.61 230.06 74.4 229.59 74.29 229.59 73.95 229.34 73.77 228.99 73.73 228.73 73.1 228.34 73.1 227.96 72.88 227.75 73.06 227.37 73.05 227.29 73.29 226.61 73.13 226.17 73.47 225.87 73.39 225.42 73.78 224.97 73.99 225 72.82 Z" id="MD"/>
<path d="M 244.66 65.67 244.75 66.07 244.65 66.39 244.29 66.69 244.27 67.04 244.77 67.09 245.07 67.45 245.02 67.74 245.27 67.81 245.29 68.07 245.93 68.29 246.66 68.08 246.5 68.39 245.42 68.67 245.02 68.68 244.78 68.47 244.41 68.53 244.4 68.69 243.98 68.79 243.8 68.38 243.74 68.31 243.5 68.15 243.38 67.61 243.04 67.61 242.43 67.64 242.43 67.6 239.59 67.56 238.6 67.54 238.55 67.45 239.1 65.96 240.94 65.99 243.58 66.07 243.83 65.86 244.44 65.63 244.66 65.67 Z" id="MA"/>
<path d="M 215.97 68.26 212.9 68.34 212.9 68.2 210.21 68.2 208.32 68.2 208.78 67.9 209.09 67.39 209.38 67.08 209.59 66.64 209.71 66.02 209.66 65.35 208.99 64.03 209.2 63.53 209.05 62.93 209.58 62.33 209.69 61.82 209.61 61.54 209.99 61.43 210.04 61.06 210.62 60.96 211.07 60.55 211.03 61.37 211.27 61.41 211.57 60.99 211.58 60.3 211.76 60.12 212.39 60.01 212.19 59.53 212.6 59.12 213.11 59.09 213.68 59.35 214.24 59.39 214.51 59.71 214.94 59.74 215.64 60.04 215.89 60.02 216.28 60.51 215.97 60.77 216.27 61.11 216.38 61.49 216.24 62.34 215.78 62.55 215.67 62.98 215.12 63.13 214.82 63.66 214.94 63.86 215.48 64.04 215.91 63.76 216.4 63.17 217.19 62.95 217.57 63.12 217.81 63.44 218.05 64.39 218.08 64.86 218.33 65.43 218.09 66.26 217.72 66.38 217.71 66.08 217.46 66.17 217.17 66.85 216.71 67.11 216.58 67.64 216.01 68.07 215.97 68.26 Z M 211.3 59.18 211.34 59.45 211.04 59.5 211.17 59.12 211.3 59.18 Z M 206.58 60.62 206.23 60.39 206.44 60.06 205.91 60.01 206.12 59.7 206.14 59.3 205.67 59.03 205.41 58.74 204.44 58.52 204.14 58.59 203.17 58.26 200.83 57.8 200.58 57.41 200.16 57.28 201.04 57.04 201.44 56.77 202.44 56.65 203.08 56.32 203.38 56.31 203.63 56.07 204.34 55.73 204.7 55.45 205.24 55.26 205.75 55.42 204.85 56.12 204.64 56.36 204.65 56.78 205.09 56.46 205.87 56.5 206.48 56.73 207.03 57.35 207.32 57.46 207.9 57.36 208.03 57.5 208.61 57.57 209.82 57.05 210.46 57 211.3 57.03 211.88 56.85 212.31 56.84 212.4 57.48 212.85 57.56 213.29 57.46 213.48 57.61 213.78 57.43 214.44 57.36 214.45 58.16 214.75 58.49 215.2 58.58 215.25 58.36 215.68 58.36 215.92 58.59 215.72 58.77 214.48 58.62 213.88 58.72 213.23 58.45 213.05 58.69 213.13 58.91 212.85 58.86 212.42 58.54 211.69 58.36 211.32 58.35 210.96 58.64 210.36 58.72 209.71 58.66 209.45 58.78 209.39 59.03 208.68 59.24 208.72 58.94 208.41 58.88 208.28 59.19 207.76 59.2 207.52 59.34 207.18 59.88 206.53 60.56 206.58 60.62 Z M 203.82 54.08 203.25 54.37 202.95 54.4 202.97 54.17 204.4 53.63 204.13 54.01 203.82 54.08 Z" fill-rule="evenodd" id="MI"/>
<path d="M 196.53 56.97 196.36 56.87 195.9 57.05 195.9 58.4 195.76 58.53 195.11 58.72 194.59 59.2 194.55 59.53 194.81 59.55 195.1 59.84 194.84 60.19 194.89 60.57 194.73 61.41 195.32 61.82 195.8 61.85 196.03 62.1 196.73 62.35 196.84 62.65 197.49 63.03 197.85 63.12 198.28 63.62 198.22 63.98 198.35 64.24 198 64.24 186.46 64.24 186.46 60.16 185.93 59.9 185.54 59.46 186.16 58.98 186.21 58.72 186.12 57.81 185.85 57.57 185.66 57.08 185.7 56.47 185.61 56.37 185.54 54.91 185.09 54.14 184.91 53.71 184.84 52.79 184.99 52.48 184.69 51.75 189.4 51.75 189.4 50.88 189.85 50.91 190.15 51.08 190.45 52.26 190.68 52.4 191.43 52.44 191.52 52.55 192.39 52.6 192.49 52.85 193.23 52.79 193.23 52.69 193.82 52.56 194.33 52.61 194.91 52.8 195.07 53.04 195.41 53.01 195.72 53.52 195.87 53.31 196.44 53.21 196.54 53.42 197.21 53.57 197.21 53.77 197.55 53.93 198.23 53.84 198.64 53.62 199.2 53.48 199.4 53.82 199.79 53.74 200.25 53.82 200.78 53.77 201.39 54.05 201.98 54.01 201.93 54.13 201.17 54.42 200.11 54.64 199.43 54.88 198.44 55.46 198.02 55.82 197.38 56.23 196.36 56.78 196.53 56.97 Z" id="MN"/>
<path d="M 205.19 83.55 205.42 83.79 205.1 86.28 204.58 90.59 204.75 94.06 204.5 94.16 203.95 94.11 203.73 93.96 203.18 94.06 202.42 94.32 202.19 94.49 201.91 94.25 201.83 93.88 201.45 93.38 201.68 92.63 197.39 92.63 197.55 92.47 197.39 92.02 197.66 92 197.7 91.17 197.92 91.22 198.06 90.71 198.59 90.38 198.87 89.86 198.82 89.19 198.48 88.9 198.51 88.44 198.67 88.34 198.46 88.08 198.63 87.77 198.51 87.3 198.71 87.11 198.31 86.81 198.67 86.12 199.08 85.76 198.94 85.51 199.41 85.13 199.4 84.98 199.81 84.86 199.78 84.41 200.01 84.31 200.17 83.93 200.53 83.75 200.4 83.55 204.58 83.55 205.19 83.55 Z" id="MS"/>
<path d="M 197.89 71.33 197.69 71.65 197.71 72.11 198 72.81 198.69 73.39 199.45 73.88 199.6 74.63 199.78 74.76 200.04 74.55 200.53 74.65 200.86 74.81 200.63 75.09 200.7 75.3 200.31 75.88 200.3 76.24 200.97 76.7 201.22 77 201.47 76.95 202.2 77.44 202.2 77.78 202.39 78.22 202.2 78.37 202.71 79.02 203.07 79.04 202.88 79.96 202.55 79.86 202.42 80.15 202.28 80.15 202.15 80.15 202.16 80.71 201.72 81.28 200.25 81.28 200.61 80.86 200.96 80.58 200.76 80.15 190.95 80.13 190.62 80.13 190.62 79 190.63 74.1 190.15 73.99 189.79 73.46 189.5 73.23 190.01 72.57 189.28 72.4 189.06 72.19 188.5 71.59 188.01 70.86 190.58 70.89 193.71 70.87 196.94 70.81 197.18 70.79 197.64 71.25 197.89 71.33 Z" id="MO"/>
<path d="M 169.21 51.75 169.22 54.34 169.21 58.69 169.22 60.85 169.18 60.85 164.97 60.83 157.78 60.83 153.3 60.83 153.31 62.03 152.9 61.79 152.54 61.39 152.02 61.87 151.56 61.95 151.45 61.83 150.91 61.93 150.6 61.82 150.08 62.01 149.37 62 149.13 62.21 148.87 62.09 148.57 61.36 148.1 61.33 147.84 61.14 147.85 60.71 147.58 60.55 147.21 60.09 146.98 59.65 147.04 59.46 146.63 59.24 146.41 59.49 145.85 59.8 145.37 59.56 145.48 59.32 145.32 59.08 145.73 58.83 145.49 58.48 145.55 57.95 145.88 57.1 145.22 57.11 145.19 56.97 144.59 56.73 144.49 56.48 143.65 55.87 143.6 55.71 143.14 55.61 142.7 55.34 142.69 54.71 141.96 54.08 141.96 51.75 152.28 51.77 156.93 51.75 169.21 51.75 Z" id="MT"/>
<path d="M 186.47 66.54 186.88 67.56 187.19 67.71 187.34 68.11 187.2 68.38 187.26 68.69 187.66 68.89 187.65 69.46 187.87 69.97 187.75 70.56 188.01 70.86 188.5 71.59 189.06 72.19 174.07 72.19 173.73 72.19 173.73 69.91 169.19 69.91 169.19 65.37 170.85 65.37 174.7 65.38 181.8 65.38 181.88 65.5 183.05 65.91 183.32 65.68 183.65 65.73 184.71 65.73 185.91 66.16 186.06 66.48 186.47 66.54 Z" id="NE"/>
<path d="M 139.73 67.65 146.51 67.66 146.5 79 146.5 80.83 146.26 81.22 146.04 81.23 145.76 80.96 144.93 81.04 145.07 82.37 145.25 82.81 145.3 83.23 145.17 83.54 142.41 81.34 140.84 80.13 138.66 78.51 135.9 76.5 132.98 74.46 132.99 71.59 132.98 67.66 135.94 67.67 139.73 67.65 Z" id="NV"/>
<path d="M 244.06 60.15 244.17 61.62 244.32 64.6 244.68 64.86 244.65 65.09 244.92 65.25 244.66 65.67 244.44 65.63 243.83 65.86 243.58 66.07 240.94 65.99 240.74 65.82 240.77 65.48 240.97 65.36 240.94 65.04 241.12 64.08 241.51 63.63 241.71 63.12 241.91 62.93 241.9 62.38 242.66 62.16 243.03 61.78 242.82 61.41 243.13 61.03 243.11 60.81 243.43 60.22 243.95 60.29 244.06 60.15 Z" id="NH"/>
<path d="M 237.38 70.58 237.01 70.73 236.81 71.08 237.43 71.25 237.48 71.52 237.21 72.73 236.5 73.64 236.04 73.9 235.63 74.48 235.42 74.1 234.76 73.92 233.95 73.42 233.9 73.08 233.89 73.03 234.01 72.91 234.23 72.64 234.83 72.45 234.87 72.27 235.57 71.9 235.68 71.7 235.03 71.24 235.01 70.96 234.72 70.88 234.7 70.62 235.05 70.22 234.86 69.99 235.43 69.51 235.56 69.27 235.85 69.1 236.9 69.6 237.66 69.92 237.38 70.58 Z" id="NJ"/>
<path d="M 171.58 79 171.58 80.13 171.49 80.13 171.48 85.78 171.43 88.08 171.43 90.36 163.37 90.36 163.31 90.58 163.57 90.84 159.75 90.84 159.75 91.87 157.85 91.87 157.86 79 161.55 79 162.8 79.02 168.55 79.02 171.58 79 Z" id="NM"/>
<path d="M 238.93 60.81 238.95 61.28 238.83 61.7 239.04 62.11 238.98 62.55 238.71 63.01 238.91 63.63 238.79 63.82 239.15 64.19 239.08 65.76 239.1 65.96 238.55 67.45 238.6 67.54 238.45 69.25 238.62 69.44 238.06 69.69 238.22 69.95 239.19 70.14 239.39 70 240.22 70 240.64 69.92 241.34 69.56 241.39 69.82 241.75 69.94 240.92 70.27 239.16 70.77 238.43 70.87 237.94 70.84 237.58 70.96 237.38 70.58 237.66 69.92 236.9 69.6 235.85 69.1 235.75 68.94 235.41 68.93 235 68.54 235.05 68.21 234.77 67.95 234.6 67.96 234.35 67.65 224.35 67.65 224.35 67.08 224.35 67.04 225.74 66.39 225.97 66.08 226.41 65.87 226.24 65.48 226.05 65.41 225.92 64.79 227.25 64.53 228.43 64.54 228.9 64.6 229.41 64.85 229.74 64.75 230.72 64.76 231.32 64.6 231.95 64.19 232.36 64.18 232.37 63.56 232.58 63.2 232.07 62.95 232.19 62.66 233.09 62.28 233.43 61.94 234.52 61.18 235.56 60.8 237.1 60.86 238.93 60.81 Z" id="NY"/>
<path d="M 233.19 80.02 233.45 80.93 232.82 80.84 232.73 80.96 231.96 81.09 231.85 81.22 231.34 81.25 231.36 81.42 231.99 81.3 232.07 81.4 232.76 81.29 232.98 81.5 233.39 81.42 233.54 81.96 233.4 82.22 233.13 82.25 232.56 82.81 231.8 82.83 231.68 83.22 232 83.6 232.26 83.68 231.78 84.31 231.36 84.24 230.64 84.3 230.15 84.44 229.36 84.87 228.74 85.45 228.42 86.17 227.94 86 227.12 86.15 224.55 83.99 222 83.95 222.04 83.69 221.69 83.31 221.45 83.44 221.44 83.21 218.64 83.09 218.02 83.18 217.54 83.39 216.75 83.54 215.6 83.58 214 83.57 214.07 83.03 214.51 82.98 214.69 82.61 215.25 82.27 215.87 82.26 216.43 81.91 217.01 81.79 217.51 81.28 217.82 81.13 217.88 81.35 218.78 80.92 219.19 81.01 219.48 80.58 219.9 80.47 220 79.94 221.59 80 223.14 80.04 224.92 80.05 233.19 80.02 Z" id="NC"/>
<path d="M 184.69 51.75 184.99 52.48 184.84 52.79 184.91 53.71 185.09 54.14 185.54 54.91 185.61 56.37 185.7 56.47 185.66 57.08 185.85 57.57 186.12 57.81 186.21 58.72 169.21 58.69 169.22 54.34 169.21 51.75 184.69 51.75 Z" id="ND"/>
<path d="M 222.63 67.7 222.63 70.74 222.3 70.87 222.46 71.12 222.45 71.47 222.14 72.01 221.93 72.85 221.04 73.58 220.76 73.68 220.51 73.53 220.25 73.85 219.99 73.84 219.7 74.28 219.76 74.54 219.53 74.75 219.19 74.4 218.77 74.95 218.88 75.3 218.6 75.42 218.52 75.72 217.92 75.77 217.61 75.46 217.35 75.4 217.25 75.01 216.93 75.09 216.68 75.31 215.82 75.14 215.46 75.3 214.95 74.99 214.24 74.9 214.2 74.7 213.74 74.23 212.87 74.23 212.91 71.06 212.9 68.34 215.97 68.26 216.85 68.57 217.15 68.76 217.37 68.58 217.87 68.94 218.18 69.05 219.24 68.76 219.86 68.82 220.53 68.39 221.51 67.98 222.63 67.7 Z" id="OH"/>
<path d="M 190.62 79 190.62 80.13 191.05 82.65 190.92 86.64 190.05 86.39 189.83 86.13 189.24 85.91 189.09 86.1 188.51 86.09 188.38 85.97 187.85 86.19 187.62 86.07 187.14 86.18 186.69 86.53 186.52 86.33 186.05 86.17 185.55 86.17 185.39 85.91 184.81 86.42 184.63 86.13 184.37 86.22 184.17 86.03 183.63 85.86 183.23 86.15 183.06 85.84 182.74 85.81 182.55 85.56 182.12 85.46 181.83 85.67 181.64 85.48 181.2 85.51 180.7 85.31 180.24 85.33 180.08 84.9 179.35 84.87 179.08 84.95 178.57 84.51 178.4 84.54 178.4 80.13 174.28 80.13 171.58 80.13 171.58 79 173.76 79.02 178.2 79 190.62 79 Z" id="OK"/>
<path d="M 139.98 58.58 140.29 58.97 140.83 59.13 141.01 59.44 140.54 60.11 140.4 60.51 140.14 60.78 140.18 60.99 139.94 61.33 139.71 61.41 139.25 62.21 139.41 62.52 139.84 62.56 140.03 62.75 139.73 63.49 139.73 67.65 135.94 67.67 132.98 67.66 130.63 67.66 127.58 67.62 125.64 67.64 123.41 67.65 123.09 67.39 122.92 66.65 122.95 66.14 122.64 65.75 122.87 65.37 123.03 64.76 123.36 64.12 123.51 63.54 123.76 61.62 123.73 61.36 123.95 60.51 124.04 59.34 123.91 58.69 124.02 58.31 124.93 57.97 125.33 58.23 125.69 58.17 125.9 58.15 126.39 58.38 126.6 58.66 126.71 59.34 127.88 59.59 128.87 59.23 129.5 59.19 130.22 59.32 130.29 59.46 131.54 59.14 131.83 59.25 132.51 59.19 133.07 58.97 134.06 58.77 134.97 58.72 135.28 58.57 139.98 58.58 Z" id="OR"/>
<path d="M 235.85 69.1 235.56 69.27 235.43 69.51 234.86 69.99 235.05 70.22 234.7 70.62 234.72 70.88 235.01 70.96 235.03 71.24 235.68 71.7 235.57 71.9 234.87 72.27 234.83 72.45 234.23 72.64 233.77 72.57 233.38 72.82 225 72.82 222.63 72.82 222.63 70.74 222.63 67.7 223.06 67.57 224.35 67.04 224.35 67.08 224.35 67.65 234.35 67.65 234.6 67.96 234.77 67.95 235.05 68.21 235 68.54 235.41 68.93 235.75 68.94 235.85 69.1 Z" id="PA"/>
<path d="M 243.8 68.38 243.98 68.79 243.53 68.84 243.8 68.38 Z M 243.74 68.31 243.47 68.27 243.23 68.61 243.15 69.08 242.3 69.19 242.43 68.98 242.43 67.64 243.04 67.61 243.38 67.61 243.5 68.15 243.74 68.31 Z" fill-rule="evenodd" id="RI"/>
<path d="M 227.12 86.15 226.73 86.27 226.23 86.64 225.74 87.22 225.66 87.7 225.27 88.07 224.76 88.07 224.65 88.34 224.11 88.64 223.82 88.96 223.34 89.1 222.83 89.45 222.78 89.61 222.31 89.8 221.8 90.28 221.28 90.08 221.27 89.7 220.91 89.09 220.59 88.93 220.57 88.44 220.42 88.07 219.81 87.72 219.41 87.3 219.44 87.04 218.83 86.65 218.53 86.23 218.01 85.94 217.65 85.47 217.57 85.21 217.22 84.71 216.99 84.75 216.23 84.26 216.27 84.03 216.75 83.54 217.54 83.39 218.02 83.18 218.64 83.09 221.44 83.21 221.45 83.44 221.69 83.31 222.04 83.69 222 83.95 224.55 83.99 227.12 86.15 Z" id="SC"/>
<path d="M 169.21 58.69 186.21 58.72 186.16 58.98 185.54 59.46 185.93 59.9 186.46 60.16 186.46 64.24 186.16 64.29 186.28 64.48 186.21 64.87 186.49 65.1 186.32 65.26 186.24 65.71 186.05 66.04 186.47 66.54 186.06 66.48 185.91 66.16 184.71 65.73 183.65 65.73 183.32 65.68 183.05 65.91 181.88 65.5 181.8 65.38 174.7 65.38 170.85 65.37 169.19 65.37 169.18 60.85 169.22 60.85 169.21 58.69 Z" id="SD"/>
<path d="M 215.47 79.91 220 79.94 219.9 80.47 219.48 80.58 219.19 81.01 218.78 80.92 217.88 81.35 217.82 81.13 217.51 81.28 217.01 81.79 216.43 81.91 215.87 82.26 215.25 82.27 214.69 82.61 214.51 82.98 214.07 83.03 214 83.57 211.08 83.58 207.1 83.54 205.19 83.55 204.58 83.55 200.4 83.55 200.62 83.49 200.85 83.09 200.81 82.55 201.23 82.17 201.31 81.83 201.64 81.7 201.72 81.28 202.16 80.71 202.15 80.15 202.28 80.15 202.42 80.15 202.7 80.12 205.52 80.15 205.48 79.74 205.98 79.84 208.84 79.79 211.35 79.87 211.8 79.85 213.49 79.92 215.43 79.95 215.47 79.91 Z" id="TN"/>
<path d="M 190.92 86.64 191.16 86.85 191.6 86.74 191.93 86.84 191.93 88.04 191.93 90.37 192.43 90.87 192.44 91.37 193.06 92.29 193.1 92.77 192.86 93.35 192.64 93.59 192.71 93.9 192.55 94.14 192.72 94.57 192.19 95.38 192.39 95.61 192.02 95.62 190.83 95.93 190.41 95.76 190.34 95.38 190.04 95.64 189.83 95.58 189.71 95.9 189.95 96.04 189.99 96.46 189.57 96.91 188.88 97.47 187.51 98.07 187.38 97.97 186.97 98.12 186.95 97.98 186.39 98.08 186.13 97.79 185.97 97.86 186.57 98.44 186.13 98.63 185.72 98.52 185.66 98.93 185.15 99.35 184.63 100.13 184.29 100.95 184.04 100.89 183.98 101.19 184.24 101.12 184.12 101.71 183.94 101.74 183.93 102.07 184.14 102.26 184.2 102.94 184.45 103.18 184.52 103.62 184.71 104 184.02 104.24 183.73 103.94 183.2 103.83 182.49 103.85 181.88 103.48 181.42 103.44 181.07 103.14 180.6 103.04 180.27 102.76 180.06 102.07 179.65 101.66 179.7 101.31 179.52 100.94 179.58 100.62 179.29 100.26 179.06 100.22 178.67 99.9 178.55 99.49 178.21 99.11 177.73 98.8 177.49 98.12 177.27 97.93 176.97 97.38 176.87 96.94 176.58 96.61 176.1 96.33 175.98 96.13 175.54 95.95 175.19 95.46 174.19 95.34 173.6 95.37 173.09 95.2 172.97 95.43 172.43 95.51 172.02 95.98 171.77 96.74 171.63 96.75 171.32 97.2 170.95 97.21 170.39 96.86 168.98 96.3 168.71 96 168.16 95.72 167.78 95.07 167.75 94.49 167.37 94.01 167.28 93.6 167.03 93.34 166.15 92.96 165.67 92.43 165.29 92.25 164.88 91.8 164.31 91.56 163.91 90.97 163.57 90.84 163.31 90.58 163.37 90.36 171.43 90.36 171.43 88.08 171.48 85.78 171.49 80.13 171.58 80.13 174.28 80.13 178.4 80.13 178.4 84.54 178.57 84.51 179.08 84.95 179.35 84.87 180.08 84.9 180.24 85.33 180.7 85.31 181.2 85.51 181.64 85.48 181.83 85.67 182.12 85.46 182.55 85.56 182.74 85.81 183.06 85.84 183.23 86.15 183.63 85.86 184.17 86.03 184.37 86.22 184.63 86.13 184.81 86.42 185.39 85.91 185.55 86.17 186.05 86.17 186.52 86.33 186.69 86.53 187.14 86.18 187.62 86.07 187.85 86.19 188.38 85.97 188.51 86.09 189.09 86.1 189.24 85.91 189.83 86.13 190.05 86.39 190.92 86.64 Z" id="TX"/>
<path d="M 153.31 67.65 153.31 69.92 157.85 69.92 157.84 74.18 157.83 76.11 157.86 76.35 157.86 79 154.56 78.99 146.5 79 146.51 67.66 150.78 67.66 153.31 67.65 Z" id="UT"/>
<path d="M 243.11 60.81 243.13 61.03 242.82 61.41 243.03 61.78 242.66 62.16 241.9 62.38 241.91 62.93 241.71 63.12 241.51 63.63 241.12 64.08 240.94 65.04 240.97 65.36 240.77 65.48 240.74 65.82 240.94 65.99 239.1 65.96 239.08 65.76 239.15 64.19 238.79 63.82 238.91 63.63 238.71 63.01 238.98 62.55 239.04 62.11 238.83 61.7 238.95 61.28 238.93 60.81 241.28 60.83 243.11 60.81 Z" id="VT"/>
<path d="M 234.61 76.66 234.31 77.05 234 77.19 233.81 77.71 233.34 78.56 232.96 78.73 232.83 78.42 233.03 77.72 233.64 76.84 234.26 76.7 234.61 76.66 Z M 228.99 73.73 229.34 73.77 229.59 73.95 229.59 74.29 230.06 74.4 230.36 74.61 230.53 74.94 230.33 75.3 230.06 75.4 229.88 75.72 229.98 75.96 230.59 75.88 230.71 76.24 231.5 76.39 231.73 76.68 232.36 76.99 232.07 77.62 232.33 78.12 232.02 78.36 231.99 78.64 232.27 78.82 231.96 79.09 231.49 78.73 231.38 78.85 231.79 79.11 232.91 79.18 233.19 80.02 224.92 80.05 223.14 80.04 221.59 80 220 79.94 215.47 79.91 216.69 79.59 216.84 79.34 217.27 79.25 217.3 79.05 217.63 78.9 217.63 78.73 218.47 78.39 219.34 77.78 219.3 77.97 219.61 78.36 220 78.54 220.28 78.53 220.72 78.23 221.03 78.47 221.61 78.34 222.65 77.91 222.73 78.05 223.13 77.85 223.14 77.44 223.39 77.08 223.82 76.74 223.99 76.33 224.44 75.91 224.61 75.38 225 75.69 225.37 75.79 225.61 75.61 226.09 74.8 226.38 75 227.43 74.08 227.56 73.41 228.74 74.17 228.99 73.73 Z" fill-rule="evenodd" id="VA"/>
<path d="M 139.72 51.75 139.69 54.56 139.71 57.6 139.67 57.79 139.97 58.18 139.98 58.58 135.28 58.57 134.97 58.72 134.06 58.77 133.07 58.97 132.51 59.19 131.83 59.25 131.54 59.14 130.29 59.46 130.22 59.32 129.5 59.19 128.87 59.23 127.88 59.59 126.71 59.34 126.6 58.66 126.39 58.38 125.9 58.15 125.69 58.17 125.33 58.23 124.93 57.97 124.52 57.89 124.19 58.02 123.75 57.82 123.84 57.51 124.14 57.35 123.68 56.88 123.36 55.65 123.18 55.49 122.93 54.61 122.48 54.28 122.3 53.61 122.54 53.16 123 53.37 123.94 53.66 124.57 53.64 125.21 53.76 125.8 53.64 126.09 53.84 126.62 53.83 127 54.33 127.27 54.29 127.32 54.96 127.48 55.57 127.71 55.51 127.48 54.99 127.54 54.48 127.92 53.96 127.62 53.74 127.59 53.37 127.37 52.96 127.48 52.66 127.33 52.31 126.97 52.26 126.64 52 126.72 51.75 139.72 51.75 Z M 126.81 53.32 127.11 53.22 127.06 53.68 126.7 53.51 126.81 53.32 Z M 126.11 52.7 126.36 52.4 126.7 52.76 126.6 53.07 126.08 52.99 126.11 52.7 Z" fill-rule="evenodd" id="WA"/>
<path d="M 222.63 70.74 222.63 72.82 225 72.82 224.97 73.99 225.42 73.78 225.87 73.39 226.17 73.47 226.61 73.13 227.29 73.29 227.37 73.05 227.75 73.06 227.96 72.88 228.34 73.1 228.73 73.1 228.99 73.73 228.74 74.17 227.56 73.41 227.43 74.08 226.38 75 226.09 74.8 225.61 75.61 225.37 75.79 225 75.69 224.61 75.38 224.44 75.91 223.99 76.33 223.82 76.74 223.39 77.08 223.14 77.44 223.13 77.85 222.73 78.05 222.65 77.91 221.61 78.34 221.03 78.47 220.72 78.23 220.28 78.53 220 78.54 219.61 78.36 219.3 77.97 219.34 77.78 219.04 77.75 218.6 77.49 218.49 77.22 218.13 76.89 217.86 76.45 217.92 75.77 218.52 75.72 218.6 75.42 218.88 75.3 218.77 74.95 219.19 74.4 219.53 74.75 219.76 74.54 219.7 74.28 219.99 73.84 220.25 73.85 220.51 73.53 220.76 73.68 221.04 73.58 221.93 72.85 222.14 72.01 222.45 71.47 222.46 71.12 222.3 70.87 222.63 70.74 Z" id="WV"/>
<path d="M 200.16 57.28 200.58 57.41 200.83 57.8 203.17 58.26 204.14 58.59 204.44 58.52 205.41 58.74 205.67 59.03 206.14 59.3 206.12 59.7 205.91 60.01 206.44 60.06 206.23 60.39 206.58 60.62 206.49 60.9 206.06 60.94 205.68 61.47 205.55 61.83 205.81 61.89 206.16 61.65 206.53 61.21 207 61.03 207.37 60.46 207.85 60.34 207.81 60.63 207.49 60.91 206.85 61.85 206.68 62.38 206.69 62.75 206.45 62.87 206.24 63.38 206.32 63.82 206.12 64.1 205.84 64.81 205.91 65.37 206.18 65.87 206.09 66.53 203.85 66.53 199.65 66.49 199.49 66.21 198.68 65.94 198.51 65.58 198.43 65.07 198.71 64.8 198.37 64.58 198.35 64.24 198.22 63.98 198.28 63.62 197.85 63.12 197.49 63.03 196.84 62.65 196.73 62.35 196.03 62.1 195.8 61.85 195.32 61.82 194.73 61.41 194.89 60.57 194.84 60.19 195.1 59.84 194.81 59.55 194.55 59.53 194.59 59.2 195.11 58.72 195.76 58.53 195.9 58.4 195.9 57.05 196.36 56.87 196.53 56.97 197.04 56.99 198.62 56.6 199.2 56.39 199.4 56.55 199.09 56.85 199.84 57.24 200.16 57.28 Z" id="WI"/>
<path d="M 169.18 60.85 169.19 65.37 169.19 69.91 165.39 69.92 160.41 69.91 157.85 69.92 153.31 69.92 153.31 67.65 153.31 62.03 153.3 60.83 157.78 60.83 164.97 60.83 169.18 60.85 Z" id="WY"/>
</g>
</svg>